<?xml version="1.0" standalone="no"?>
<!DOCTYPE svg PUBLIC "-//W3C//DTD SVG 20010904//EN"
 "http://www.w3.org/TR/2001/REC-SVG-20010904/DTD/svg10.dtd">
<svg version="1.0" xmlns="http://www.w3.org/2000/svg"
 width="788.000000pt" height="170.000000pt" viewBox="0 0 788.000000 170.000000"
 preserveAspectRatio="xMidYMid meet">

<g transform="translate(0.000000,170.000000) scale(0.100000,-0.100000)"
fill="#5A4FCF" stroke="none">
<path d="M80 1133 c0 -449 2 -507 19 -590 56 -271 262 -454 529 -470 l92 -6 0
139 0 139 -62 12 c-110 21 -219 118 -248 221 -5 20 -10 119 -10 220 l0 182
160 0 160 0 0 135 0 135 -160 0 -160 0 0 190 0 190 -160 0 -160 0 0 -497z"/>
<path d="M2254 1616 c-12 -30 3 -1039 16 -1091 20 -82 86 -209 140 -268 104
-113 233 -175 388 -184 l93 -6 -3 138 -3 137 -66 17 c-110 28 -211 120 -239
219 -5 20 -10 119 -10 219 l0 182 158 3 157 3 0 130 0 130 -157 3 -158 3 0
189 0 190 -155 0 c-127 0 -157 -3 -161 -14z"/>
<path d="M1299 1256 c-124 -36 -186 -73 -274 -161 -90 -90 -133 -160 -164
-275 -83 -297 102 -623 409 -721 81 -26 234 -36 323 -20 192 33 363 162 447
336 45 94 60 159 60 260 0 98 -15 165 -55 250 -59 125 -160 227 -288 291 -127
65 -318 82 -458 40z m310 -290 c61 -32 115 -86 149 -149 23 -46 27 -63 26
-142 0 -108 -21 -162 -86 -228 -87 -86 -195 -114 -314 -82 -84 23 -169 97
-204 177 -34 76 -33 194 0 263 47 97 128 162 235 189 42 10 148 -5 194 -28z"/>
<path d="M3482 1260 c-113 -30 -206 -84 -293 -170 -242 -241 -238 -606 9 -842
137 -130 281 -183 477 -176 176 7 309 64 429 184 58 57 136 173 136 201 0 10
-40 13 -173 13 l-173 0 -33 -34 c-98 -101 -287 -111 -403 -23 -51 39 -108 111
-108 138 0 18 15 19 463 21 l462 3 3 87 c13 400 -391 704 -796 598z m289 -288
c25 -11 63 -35 84 -54 36 -31 95 -112 95 -130 0 -9 -593 -11 -602 -2 -12 11
38 87 82 127 97 85 226 108 341 59z"/>
<path d="M4852 1259 c-41 -10 -106 -36 -145 -56 -83 -44 -199 -154 -239 -225
-186 -334 -45 -725 312 -866 219 -87 497 -38 673 119 53 47 129 151 155 212
l12 27 -171 0 -171 0 -40 -34 c-155 -133 -375 -106 -485 58 -18 27 -33 55 -33
62 0 12 75 14 465 14 l465 0 0 98 c0 54 -7 123 -15 155 -55 212 -230 381 -453
437 -99 25 -231 25 -330 -1z m295 -289 c24 -11 59 -32 76 -46 37 -31 97 -112
97 -131 0 -10 -58 -13 -300 -13 -243 0 -300 3 -300 13 0 22 60 106 94 131 43
33 95 58 136 67 52 12 146 2 197 -21z"/>
<path d="M6225 1261 c-147 -42 -274 -144 -339 -274 -67 -132 -69 -144 -73
-534 l-5 -353 156 0 156 0 0 302 c0 173 5 328 11 364 15 86 61 160 123 198 43
27 58 30 125 31 116 0 184 -45 235 -155 20 -42 21 -64 24 -392 l3 -348 154 0
153 0 4 333 c6 367 9 392 70 472 51 67 98 89 188 89 114 1 184 -44 232 -149
22 -48 23 -61 28 -395 l5 -345 155 0 155 0 0 330 c-1 373 -5 404 -67 535 -93
195 -280 310 -502 310 -137 0 -279 -57 -375 -150 l-42 -41 -56 51 c-135 123
-343 172 -518 121z"/>
</g>
</svg>
